<svg xmlns="http://www.w3.org/2000/svg" xmlns:xlink="http://www.w3.org/1999/xlink" xmlns:xodm="http://www.corel.com/coreldraw/odm/2003" id="Layer_1" x="0" y="0" version="1.1" viewBox="0 0 2500 2500" style="enable-background:new 0 0 2500 2500" xml:space="preserve"><style type="text/css">.st0{fill:url(#SVGID_1_)}.st1{fill-rule:evenodd;clip-rule:evenodd;fill:#fff}.st2{fill:none}</style><g id="Layer_x0020_1"><g id="_2090557022800"><linearGradient id="SVGID_1_" x1="996.349" x2="1506.349" y1="1889.427" y2="607.427" gradientTransform="matrix(1 0 0 -1 0 2497.8899)" gradientUnits="userSpaceOnUse"><stop offset="0" style="stop-color:#29afe5"/><stop offset=".361" style="stop-color:#9181c3"/><stop offset="1" style="stop-color:#fa52a0"/></linearGradient><path d="M2458,1563l-481,710l-4-3c-173,232-731,136-1258-237C191,1663-111,1192,39,938l-4-3l481-699l0,0 C683-4,1247,89,1779,466C2322,821,2615,1322,2458,1563L2458,1563z" class="st0"/><path d="M2385,1522c-147,209-658,104-1149-240C735,937,442,499,588,290s658-104,1149,240 C2227,875,2520,1313,2385,1522z M1925,1208c-73,104-324,53-575-115c-240-167-386-386-313-490s324-53,575,115 C1852,885,1998,1104,1925,1208z" class="st1"/></g><rect width="2500" height="2500" y="0" class="st2"/></g></svg>